<svg width="28" height="23" viewBox="0 0 28 23" fill="none" xmlns="http://www.w3.org/2000/svg">
<path d="M28 2.7215C26.9643 3.18751 25.8732 3.48576 24.7081 3.63488C25.8917 2.92655 26.7979 1.78948 27.2232 0.42873C26.1136 1.09979 24.893 1.5658 23.5799 1.82676C22.5258 0.708336 21.0462 0 19.3818 0C16.2193 0 13.6486 2.59102 13.6486 5.77853C13.6486 6.2259 13.7041 6.67327 13.7966 7.102C9.0251 6.85968 4.78996 4.54827 1.96037 1.0625C1.46103 1.91996 1.18362 2.90791 1.18362 3.97041C1.18362 5.98358 2.20079 7.75442 3.7358 8.77964C2.7926 8.74236 1.90489 8.4814 1.12814 8.05267C1.12814 8.07131 1.12814 8.10859 1.12814 8.12723C1.12814 10.9233 3.107 13.272 5.73316 13.7939C5.25231 13.9244 4.75297 13.999 4.21665 13.999C3.84676 13.999 3.49538 13.9617 3.14399 13.8871C3.88375 16.1799 5.99207 17.8575 8.50727 17.9135C6.5469 19.4606 4.06869 20.3926 1.36856 20.3926C0.906209 20.3926 0.443857 20.374 0 20.3181C2.53369 21.9584 5.56671 22.9091 8.80317 22.9091C19.3633 22.9091 25.1334 14.0922 25.1334 6.44959C25.1334 6.20726 25.1334 5.9463 25.1149 5.70397C26.2616 4.90243 27.2417 3.87721 28 2.7215Z" fill="#333333"/>
</svg>
